<svg viewBox="0 0 657 628" xmlns="http://www.w3.org/2000/svg">
<g filter="url(#filter0_d_14_3)">
<path d="M292.631 22.6795C307.303 -7.05036 349.697 -7.0504 364.369 22.6794L433.37 162.491C439.197 174.297 450.46 182.479 463.488 184.372L617.779 206.792C650.588 211.56 663.688 251.878 639.947 275.02L528.301 383.848C518.874 393.037 514.572 406.277 516.798 419.253L543.154 572.921C548.758 605.597 514.461 630.515 485.116 615.088L347.114 542.536C335.461 536.409 321.539 536.409 309.886 542.536L171.884 615.088C142.539 630.515 108.242 605.597 113.846 572.921L140.202 419.253C142.428 406.277 138.126 393.037 128.699 383.848L17.0526 275.02C-6.68811 251.879 6.41224 211.56 39.2211 206.792L193.512 184.372C206.54 182.479 217.803 174.297 223.63 162.491L292.631 22.6795Z" fill="white"/>
<path d="M355.402 27.1051L424.403 166.916C431.686 181.674 445.764 191.902 462.05 194.268L616.341 216.688C640.948 220.264 650.773 250.503 632.967 267.859L521.321 376.687C509.537 388.174 504.16 404.724 506.942 420.944L533.298 574.611C537.501 599.118 511.778 617.807 489.769 606.236L351.767 533.684C337.201 526.027 319.799 526.027 305.233 533.684L167.231 606.236C145.222 617.807 119.499 599.118 123.702 574.611L150.058 420.944C152.84 404.724 147.463 388.174 135.679 376.687L24.0327 267.859C6.22716 250.503 16.0525 220.264 40.659 216.688L194.95 194.268C211.236 191.902 225.314 181.674 232.597 166.916L301.598 27.1051C312.602 4.80774 344.398 4.80774 355.402 27.1051Z" stroke="#767676" stroke-width="20"/>
</g>
<defs>
<filter id="filter0_d_14_3" x="0.929321" y="0.381836" width="655.141" height="627.39" filterUnits="userSpaceOnUse" color-interpolation-filters="sRGB">
<feFlood flood-opacity="0" result="BackgroundImageFix"/>
<feColorMatrix in="SourceAlpha" type="matrix" values="0 0 0 0 0 0 0 0 0 0 0 0 0 0 0 0 0 0 127 0" result="hardAlpha"/>
<feOffset dy="4"/>
<feGaussianBlur stdDeviation="2"/>
<feComposite in2="hardAlpha" operator="out"/>
<feColorMatrix type="matrix" values="0 0 0 0 0 0 0 0 0 0 0 0 0 0 0 0 0 0 0.25 0"/>
<feBlend mode="normal" in2="BackgroundImageFix" result="effect1_dropShadow_14_3"/>
<feBlend mode="normal" in="SourceGraphic" in2="effect1_dropShadow_14_3" result="shape"/>
</filter>
</defs>
</svg>
